<svg width="64" height="64" viewBox="0 0 64 64" fill="none" xmlns="http://www.w3.org/2000/svg">
<rect width="64" height="64" fill="white" fill-opacity="0.01"/>
<path d="M39.3125 38.5C39.651 38.5 39.9684 38.5635 40.2646 38.6904C40.5609 38.8174 40.819 38.9909 41.0391 39.2109C41.2591 39.431 41.4326 39.6891 41.5596 39.9854C41.6865 40.2816 41.75 40.599 41.75 40.9375C41.75 41.276 41.6865 41.5934 41.5596 41.8896C41.4326 42.1859 41.2591 42.444 41.0391 42.6641C40.819 42.8841 40.5609 43.0576 40.2646 43.1846C39.9684 43.3115 39.651 43.375 39.3125 43.375C38.974 43.375 38.6566 43.3115 38.3604 43.1846C38.0641 43.0576 37.806 42.8841 37.5859 42.6641C37.3659 42.444 37.1924 42.1859 37.0654 41.8896C36.9385 41.5934 36.875 41.276 36.875 40.9375C36.875 40.6751 36.9215 40.4043 37.0146 40.125H30.2354C30.3285 40.4043 30.375 40.6751 30.375 40.9375C30.375 41.276 30.3115 41.5934 30.1846 41.8896C30.0576 42.1859 29.8841 42.444 29.6641 42.6641C29.444 42.8841 29.1859 43.0576 28.8896 43.1846C28.5934 43.3115 28.276 43.375 27.9375 43.375C27.599 43.375 27.2816 43.3115 26.9854 43.1846C26.6891 43.0576 26.431 42.8841 26.2109 42.6641C25.9909 42.444 25.8174 42.1859 25.6904 41.8896C25.5635 41.5934 25.5 41.276 25.5 40.9375C25.5 40.472 25.6227 40.0404 25.8682 39.6426C26.1221 39.2448 26.4606 38.9443 26.8838 38.7412L21.3994 22.25H19V20.625H22.5674L23.6465 23.875H45L41.2168 35.25H27.4424L28.5215 38.5H39.3125ZM24.1924 25.5L26.8965 33.625H40.0361L42.7402 25.5H24.1924ZM28.75 40.9375C28.75 40.7174 28.6696 40.527 28.5088 40.3662C28.348 40.2054 28.1576 40.125 27.9375 40.125C27.7174 40.125 27.527 40.2054 27.3662 40.3662C27.2054 40.527 27.125 40.7174 27.125 40.9375C27.125 41.1576 27.2054 41.348 27.3662 41.5088C27.527 41.6696 27.7174 41.75 27.9375 41.75C28.1576 41.75 28.348 41.6696 28.5088 41.5088C28.6696 41.348 28.75 41.1576 28.75 40.9375ZM39.3125 41.75C39.5326 41.75 39.723 41.6696 39.8838 41.5088C40.0446 41.348 40.125 41.1576 40.125 40.9375C40.125 40.7174 40.0446 40.527 39.8838 40.3662C39.723 40.2054 39.5326 40.125 39.3125 40.125C39.0924 40.125 38.902 40.2054 38.7412 40.3662C38.5804 40.527 38.5 40.7174 38.5 40.9375C38.5 41.1576 38.5804 41.348 38.7412 41.5088C38.902 41.6696 39.0924 41.75 39.3125 41.75Z" fill="white"/>
</svg>
